<?xml version="1.0" encoding="UTF-8" standalone="no"?>
<svg
   viewBox="0 0 512 512"
   version="1.1"
   id="svg2"
   sodipodi:docname="controller.svg"
   width="512"
   height="512"
   inkscape:version="1.4 (86a8ad7, 2024-10-11)"
   xmlns:inkscape="http://www.inkscape.org/namespaces/inkscape"
   xmlns:sodipodi="http://sodipodi.sourceforge.net/DTD/sodipodi-0.dtd"
   xmlns="http://www.w3.org/2000/svg"
   xmlns:svg="http://www.w3.org/2000/svg"
   xmlns:bx="https://boxy-svg.com">
  <sodipodi:namedview
     id="namedview2"
     pagecolor="#ffffff"
     bordercolor="#000000"
     borderopacity="0.25"
     inkscape:showpageshadow="2"
     inkscape:pageopacity="0.0"
     inkscape:pagecheckerboard="0"
     inkscape:deskcolor="#d1d1d1"
     inkscape:zoom="0.85772053"
     inkscape:cx="149.23276"
     inkscape:cy="135.82513"
     inkscape:window-width="1264"
     inkscape:window-height="538"
     inkscape:window-x="1076"
     inkscape:window-y="294"
     inkscape:window-maximized="0"
     inkscape:current-layer="svg2" />
  <defs
     id="defs1">
    <bx:export>
      <bx:file
         format="svg" />
    </bx:export>
  </defs>
  <path
     d="m 274.46962,8.1867982 c 4.48389,-7.82270995 14.43927,-10.52317 22.23082,-5.97772 l 56.32748,32.6264498 c 8.16231,4.72905 10.62161,15.45777 5.28693,23.30241 16.87752,13.29026 33.72913,28.44905 49.66195,44.438942 16.55291,16.61219 32.23235,34.24071 45.84268,51.82212 7.81665,-5.58452 18.66897,-3.18465 23.47181,5.14501 l 32.51001,56.52924 c 5.33307,9.229 0.53023,21.01952 -9.72386,23.88003 1.1487,5.30586 1.74693,10.47524 1.7445,15.45939 0.002,18.82845 -6.20572,42.22266 -15.56288,66.15063 -9.49476,24.29518 -22.80719,50.5304 -38.18873,75.47062 -15.37912,24.94267 -33.1042,48.91533 -51.54327,68.52695 -18.20998,19.3817 -38.18793,35.60314 -58.35045,43.42423 -18.66978,7.10616 -39.75191,1.3616 -52.30501,-14.18878 -13.0801,-16.22062 -16.57638,-34.81916 -17.0119,-52.74584 -0.29871,-11.00411 0.69051,-23.58025 1.58664,-35.69412 0.50433,-6.32138 0.96575,-12.50546 1.26365,-18.25247 1.74774,-35.34722 -1.6085,-72.07799 -39.01444,-109.61792 -37.40513,-37.53911 -74.00723,-40.90981 -109.22749,-39.155 -5.74834,0.27704 -11.88849,0.76205 -18.18731,1.26818 -12.069829,0.90015 -24.576789,1.86854 -35.567539,1.59151 -17.88617,-0.41352 -36.39405,-3.94507 -52.55596,-17.07121 C 1.6372814,212.49619 -4.0851586,191.34018 3.0183114,172.62627 10.788821,152.36879 26.997681,132.31765 46.263261,114.04245 65.805701,95.538138 89.714641,77.818618 114.56909,62.338118 c 24.85122,-15.43664 51.01709,-28.77239 75.20207,-38.32472 23.84176,-9.39149 47.15409,-15.6194298 65.89025,-15.6429898 5.95477,0.0228 11.88769,0.80835 17.65789,2.2609398 l 1.17379,-2.4681098 z m 37.33632,56.4804998 c -24.41489,-15.96389 -43.95813,-23.67369 -56.12105,-23.6485 -12.68911,8.1e-4 -31.49731,4.52107 -54.02847,13.38205 -24.30075,9.85212 -47.70456,21.80351 -69.96047,35.69494 -22.55302,13.773632 -43.658619,29.739152 -63.107149,47.691012 -17.86513,16.9136 -30.02562,32.99287 -35.24616,46.5837 -2.00031,5.51383 -0.27443,11.67355 4.27665,15.36839 8.29993,6.75845 18.59935,9.48247 32.89858,9.84969 9.51905,0.23316 18.92073,-0.52888 29.635429,-1.3608 6.64529,-0.5305 13.77223,-1.08457 21.70302,-1.47696 39.98181,-2.00665 87.32047,2.03103 133.80752,48.6846 46.48624,46.65275 50.50952,94.16097 48.50921,134.28518 -0.39018,7.96 -0.94227,15.11248 -1.47169,21.78076 -0.8508,10.73114 -1.58746,20.18924 -1.35674,29.74077 0.34485,14.32932 3.05914,24.66563 9.79428,33.03997 3.68005,4.57064 9.84043,6.2767 15.33459,4.26923 13.51967,-5.26199 29.54396,-17.42136 46.41905,-35.37078 17.88537,-19.52064 33.77204,-40.72378 47.51999,-63.33401 13.84185,-22.33563 25.74977,-45.82409 35.56754,-70.21107 8.82854,-22.61267 13.33671,-41.53293 13.33428,-54.222 0.0251,-12.20648 -7.65555,-31.8181 -23.5649,-56.32288 -15.42687,-23.74111 -36.94613,-49.53763 -60.7636,-73.44041 -23.81909,-23.9044 -49.52353,-45.500752 -73.17991,-60.982882"
     style="stroke-width:1.14687;fill:#e7f1f3;fill-opacity:1"
     id="path1" />
  <path
     d="m 412.82497,285.70831 c -8.8512,8.88292 -23.95751,4.79893 -27.20042,-7.31576 -1.49355,-5.65195 0.11414,-11.65081 4.20785,-15.75917 8.8512,-8.8829 23.9567,-4.8436 27.19799,7.31496 1.49274,5.60727 -0.0899,11.62967 -4.20542,15.75997 m -68.97368,-10e-4 c 8.85202,8.88373 23.95671,4.79973 27.19799,-7.31333 1.49355,-5.65195 -0.11576,-11.65242 -4.20784,-15.75916 -8.85121,-8.88292 -23.95589,-4.84604 -27.19799,7.31495 -1.49517,5.60646 0.0931,11.62806 4.20784,15.75754 m 68.97287,46.14743 c -8.85201,8.88372 -23.95751,4.79892 -27.19961,-7.31495 -1.49355,-5.65196 0.11738,-11.6508 4.20947,-15.75754 8.8512,-8.88292 23.95508,-4.84685 27.19637,7.31333 1.49436,5.60727 -0.0915,11.62967 -4.20623,15.75916 m -68.97125,-8.1e-4 c 8.8504,8.8821 23.9559,4.79891 27.19556,-7.31414 1.49355,-5.65196 -0.11414,-11.65243 -4.20541,-15.75836 -8.85283,-8.88453 -23.95751,-4.84603 -27.19961,7.31496 -1.49517,5.60484 0.0939,11.62724 4.20946,15.75754 m -80.46875,-219.19421 22.99096,23.07331 -22.99096,23.0733 22.99015,23.0725 -22.99015,23.0725 -22.99015,-23.0725 -22.99015,23.0725 -22.99095,-23.07331 22.99014,-23.07249 -22.99014,-23.0725 22.99014,-23.0725 22.99015,23.0725 z"
     style="stroke-width:1.14687;fill:#e7f1f3;fill-opacity:1"
     id="path2" />
</svg>
