<svg xmlns="http://www.w3.org/2000/svg" viewBox="0 0 500 500" xmlns:bx="https://boxy-svg.com">
  <defs>
    <bx:export>
      <bx:file format="svg"></bx:file>
    </bx:export>
  </defs>
  <path d="M 127.512 101.918 C 125.467 94.334 129.954 86.523 137.564 84.508 L 192.435 69.797 C 200.387 67.666 208.509 72.75 210.042 80.873 C 228.646 78.628 248.384 77.549 268.066 77.549 C 288.514 77.549 309.048 78.714 328.275 81.128 C 329.666 72.863 337.846 67.637 345.939 69.797 L 400.81 84.508 C 409.784 86.894 414.074 97.117 409.501 105.211 C 413.476 107.767 417.027 110.579 420.093 113.648 C 431.682 125.235 442.246 143.467 451.193 163.973 C 460.281 184.79 468.205 209.159 474.054 234.009 C 479.906 258.859 483.712 284.561 484.393 308.02 C 485.074 331.196 482.718 353.519 475.078 370.786 C 467.92 386.691 451.363 396.177 434.039 394.36 C 415.977 392.456 402.371 383.169 391.069 372.405 C 384.112 365.817 376.983 357.466 370.081 349.457 C 366.502 345.255 362.981 341.164 359.628 337.443 C 338.953 314.609 314.274 294.076 268.066 294.076 C 221.859 294.076 197.177 314.609 176.503 337.443 C 173.123 341.164 169.629 345.255 166.05 349.457 C 159.149 357.466 152.02 365.787 145.061 372.405 C 133.759 383.198 120.154 392.456 102.093 394.36 C 84.738 396.177 68.183 386.691 61.053 370.786 C 53.385 353.519 51.056 331.167 51.708 308.02 C 52.39 284.561 56.252 258.888 62.076 234.009 C 67.925 209.159 75.879 184.79 84.938 163.973 C 93.884 143.467 104.45 125.235 116.008 113.648 C 119.7 109.984 123.848 106.803 128.306 104.133 L 127.512 101.889 L 127.512 101.918 Z M 185.334 113.618 C 160.429 118.873 143.613 126.199 136.116 133.727 C 128.279 141.565 119.444 155.964 110.981 175.334 C 102.035 196.407 94.935 218.218 89.738 240.514 C 84.285 262.921 81.075 285.783 80.111 308.844 C 79.486 330.288 81.871 347.695 87.011 359.284 C 89.169 363.913 94.026 366.638 99.111 366.101 C 108.397 365.134 116.435 360.449 125.493 351.843 C 131.516 346.107 136.854 339.831 142.96 332.701 C 146.738 328.27 150.799 323.527 155.456 318.387 C 178.916 292.457 210.64 265.703 268.066 265.703 C 325.491 265.703 357.215 292.457 380.674 318.387 C 385.332 323.527 389.393 328.27 393.17 332.701 C 399.249 339.831 404.615 346.107 410.636 351.843 C 419.668 360.449 427.706 365.134 437.02 366.128 C 442.106 366.668 446.961 363.913 449.119 359.284 C 454.231 347.695 456.645 330.314 456.021 308.844 C 455.054 285.783 451.817 262.921 446.393 240.514 C 441.196 218.218 434.095 196.407 425.15 175.334 C 416.686 155.964 407.826 141.535 400.015 133.727 C 392.518 126.199 375.704 118.873 350.796 113.618 C 326.656 108.535 297.488 105.95 268.066 105.95 C 238.642 105.95 209.474 108.535 185.334 113.618" style="transform-origin: 268.054px 231.945px 0px; fill: oklab(0.946 -0.004 -0.011);" transform="matrix(0.707107, 0.707107, -0.707107, 0.707107, 0, 0)"></path>
  <path d="M 383.769 187.263 C 383.769 198.197 371.925 205.014 362.466 199.561 C 358.065 197.005 355.366 192.32 355.366 187.263 C 355.366 176.329 367.182 169.485 376.667 174.966 C 381.04 177.495 383.769 182.179 383.769 187.263 M 341.166 229.864 C 352.101 229.864 358.917 218.021 353.464 208.564 C 350.908 204.163 346.221 201.464 341.166 201.464 C 330.232 201.464 323.387 213.278 328.869 222.765 C 331.396 227.139 336.083 229.864 341.166 229.864 M 412.169 215.664 C 412.169 226.599 400.325 233.415 390.867 227.962 C 386.466 225.406 383.769 220.719 383.769 215.664 C 383.769 204.73 395.582 197.885 405.068 203.367 C 409.442 205.895 412.169 210.581 412.169 215.664 M 369.568 258.264 C 380.501 258.264 387.318 246.421 381.864 236.965 C 379.308 232.564 374.622 229.864 369.568 229.864 C 358.632 229.864 351.788 241.679 357.27 251.166 C 359.796 255.539 364.484 258.264 369.568 258.264 M 184.963 173.063 L 213.364 173.063 L 213.364 201.464 L 241.764 201.464 L 241.764 229.864 L 213.364 229.864 L 213.364 258.264 L 184.963 258.264 L 184.963 229.864 L 156.563 229.864 L 156.563 201.464 L 184.963 201.464 L 184.963 173.063 Z" style="transform-origin: 284.366px 215.65px 0px; fill: oklab(0.946 -0.004 -0.011);" transform="matrix(0.707107, 0.707107, -0.707107, 0.707107, 0, 0)"></path>
</svg>